<svg xmlns="http://www.w3.org/2000/svg" viewBox="0 0 347.1 341.88"><defs><style>.cls-1{fill:#fff;}.cls-2{fill:#f6eba9;opacity:0.82;}.cls-3{fill:#ded5c7;}.cls-4{fill:#cfb2d5;}.cls-5{fill:#d8c0dd;}.cls-6{fill:#e4c1a3;}.cls-7{fill:none;stroke:#d6b59d;stroke-miterlimit:10;}.cls-20,.cls-7{stroke-linecap:round;}.cls-8{fill:#5f3914;}.cls-9{fill:#d28c9b;}.cls-10{fill:#c48696;}.cls-11{fill:#ddbba2;}.cls-12{fill:#2f344f;}.cls-13{fill:#48516e;}.cls-14{fill:#393e60;}.cls-15{fill:#424869;}.cls-16{fill:#efb96a;}.cls-17{fill:#302e2f;}.cls-18{opacity:0.83;}.cls-19{fill:#333;}.cls-20{fill:#f7a09b;stroke:#231f20;stroke-linejoin:round;stroke-width:0.5px;}.cls-21{fill:#edcdb5;}.cls-22{fill:#caa991;}.cls-23{fill:#754c29;}</style></defs><g id="blob"><path class="cls-1" d="M164.79,154.3s97.7-54.12,157.11-38.86,75,42.49,90.21,68.44S477.37,271.59,453,334.39,338.43,461,273.26,454.09s-101.7-91.71-101.7-91.71h0s-59.92-106.18-48.9-148.8S164.79,154.3,164.79,154.3Z" transform="translate(-121.3 -112.73)"/><path class="cls-2" d="M164.79,154.3s97.7-54.12,157.11-38.86,75,42.49,90.21,68.44S477.37,271.59,453,334.39,338.43,461,273.26,454.09s-101.7-91.71-101.7-91.71h0s-59.92-106.18-48.9-148.8S164.79,154.3,164.79,154.3Z" transform="translate(-121.3 -112.73)"/></g><g id="desk"><polygon class="cls-3" points="1.51 236.55 347.1 239.08 347.1 227.43 1.51 224.89 1.51 236.55"/></g><g id="chair"><path class="cls-4" d="M390.72,341.15l23.17-70.79s8.81-32.57-14.37-34c0,0-10.66,9.27-12.51,27.34l-23.18,77.41Z" transform="translate(-121.3 -112.73)"/><polygon class="cls-5" points="159.56 226.09 186.91 123.67 278.22 123.67 249.94 228.42 159.56 226.09"/></g><g id="face"><polygon class="cls-6" points="191.12 71.94 180.41 76.5 173.98 129.79 192.35 149.99 222.96 149.99 236.12 112.49 230.3 71.94 214.08 67.04 191.12 71.94"/></g><g id="hair"><path class="cls-7" d="M317.5,259.79l3.6.64s18.92-1.95,24.25-8.31" transform="translate(-121.3 -112.73)"/><path class="cls-8" d="M368.22,215.52s-3.3-22.2-9.88-30.22c0,0-8.45-12.89-22.49-14.18,0,0-12.32-4-19.34,1,0,0-8.73,2.29-10,13.18,0,0-4.73-2.72-10.31,9.88,0,0-2.3,19-1.87,22.77,0,0-2.57,28.94-2.86,31.08,0,0-.14,10.89,1.57,15.9,0,0,3.73,5.59,4,8.45,0,0,3.84,7.15,8.36,6.73v-7.66l3.83,1.18,1.41-2,2.29,2.44,4.59-1s6,.85,7.16.14,1.86-4.44,1.86-4.44l.57,4.58s10,1,10.17,1.86c0,0,3.15.72,3.58-.14s1.29-2.43,1.29-2.43-2,11-2.72,12.17h13.46a33.17,33.17,0,0,0,2.44-4.15s3-2.15,4.15-2.72c0,0,7.59-1.58,8.74-12.47C368.22,265.5,373.8,233.57,368.22,215.52Zm-22.14,19.31-1.11,18s-12.9,9.57-25.8,7.34S300,238.83,300,238.83s-.67-10.79,0-13c0,0,1.33-9.5.89-13.06,0,0-1.34-19.58,7.78-21.58,0,0,9.34,2.23,14,1.78s11.78-1.78,11.78-1.78S349.42,203.47,346.08,234.83Z" transform="translate(-121.3 -112.73)"/></g><g id="neck"><path class="cls-6" d="M321.1,260.43A44.07,44.07,0,0,0,345,252.84l-5.53,21.49s-6.24,9.3-15.67,9.51c0,0-9.42,3.25-5.53-9.95l-.74-14.1Z" transform="translate(-121.3 -112.73)"/></g><g id="shirt"><path class="cls-9" d="M279.52,283.6s18.82-14.27,22.71-14.92c0,0,7.14-5,13-2.17,0,0,5.84,2.38,8.22,2.6s16-.65,21-1.3,14.06-5.19,19.9,1.08,3,16.44,3,16.44l-18.61,38.51s-16.36,4.31-26.1-6.29l1.13,10.13h13.08l4.46-.9-4.5,13.8-57.29-.47,15.57-40.06-14.28,12.11Z" transform="translate(-121.3 -112.73)"/><polyline class="cls-10" points="159.24 193.49 175.49 177.87 173.79 187.32 159.51 199.43 159.24 193.49"/><polyline class="cls-10" points="201.34 202.42 205.17 187.94 199.3 205.26 201.34 202.42"/><path class="cls-8" d="M341,268.16s-.6,13.57-1.24,14.69h13.46l2.44-4.15s3.39-3.29,6.76-3.89,5-4.41,5.33-7.69,2.51-24.66,2.51-24.66l-14.58,17Z" transform="translate(-121.3 -112.73)"/><path class="cls-8" d="M305.46,280.27l2.85-15.55-5.21-15.43-4.54-2.57-6.7-1.06s-.92,12.77,1.22,19.43c0,0,3.55,5.28,4,8.46C297.09,273.55,300.09,280.61,305.46,280.27Z" transform="translate(-121.3 -112.73)"/></g><g id="arms"><path class="cls-11" d="M268.53,321.44l12.34-8.5-32.69-3.61-4.27,7.15s-20.53,16.81-28.39,16.81-1.08,2.18-1.08,2.18l1.39-.61,26.72-.69Z" transform="translate(-121.3 -112.73)"/><path class="cls-6" d="M345.6,320.5l-7.93,11.6s-8.75,3.66-14,4.27c0,0-27.87,3.88-31.94,3.84,0,0-19.85-.35-20.59-2.17,0,0-4.25-3.83-5.14-3.7,0,0-4.57,1-6.23,3.3,0,0-4.44,1.78-3.93-.51s5.84-4.95,5.84-4.95-4.45,1.14-6.86,3.3-4.7,3.18-5.21,2.16.51-3.18,1.65-3.94c0,0-3.69,2.29-4.7,1.65s-2.52-1.63,1.53-3.93l8.81-5s-3.35-1-3.73-.72-3.69,3.3-4.32,3.43-3.44,1.14-2.8-1.4l4.7-4.13a3.13,3.13,0,0,1,2.92-1.59s11.31,0,19.32,3.56S283.37,329,284.26,329s30.25-8.5,30.25-8.5l6.1-2.51a25.73,25.73,0,0,0,2-2.84Z" transform="translate(-121.3 -112.73)"/></g><g id="computer"><rect class="cls-12" x="8.1" y="111.74" width="156.09" height="93.52" rx="4.58"/><polygon class="cls-13" points="103.13 218.7 125.24 218.7 125.24 226.09 112.36 226.09 103.13 224.46 103.13 218.7"/><rect class="cls-14" x="8.1" y="111.74" width="148.87" height="91.79" rx="4.58"/><rect class="cls-13" x="40.15" y="136.98" width="84.78" height="52.27" rx="4.58"/><rect class="cls-15" x="33.96" y="136.98" width="84.78" height="52.27" rx="4.58"/><polygon class="cls-12" points="59.5 155.79 59.5 218.24 34.28 218.24 34.28 226.09 112.36 226.09 112.36 218.7 84.54 218.7 84.54 155.79 59.5 155.79"/><rect class="cls-13" x="79.58" y="155.79" width="4.96" height="64.77"/></g><g id="cat"><path class="cls-1" d="M370.94,294.45s4.69,2.67,6.25,5.57a20.42,20.42,0,0,1,10.48,0s5.8-5.8,7.13-5.57c0,0,2.68.66,3.57,8,0,0,15.67-8.45,30.56,2.4a12.36,12.36,0,0,1,3.29,3.65c2.72,4.55,7.59,15.44,1.16,27.63,0,0-4.9,7.58-17.39,4.46,0,0-8.42-.73-12.24.75,0,0-8.44,4.1-14,0l-6.5-.53s-11.38,4.91-11.15-7.14c0,0-2.9-7.13-1.12-10.48C370.94,323.21,359.35,316.75,370.94,294.45Z" transform="translate(-121.3 -112.73)"/><path class="cls-16" d="M403.89,312.76s11.27,1.72,17.77-2.77,1-6.78,1-6.78L418.1,300s-11.17-3.12-21.18,3.34C390.57,307.41,401.12,312.51,403.89,312.76Z" transform="translate(-121.3 -112.73)"/><path class="cls-17" d="M411.86,325s-2.08-.52-1.08-4.17l.68,1.19s1.37-3.52,3-3.78,7.93,1.87,8.63,7c.44,3.21-3.25,5.51-3.58,5.58s-5.28,2.4-7.25-2.71A7.17,7.17,0,0,1,411.86,325Z" transform="translate(-121.3 -112.73)"/><g class="cls-18"><path class="cls-19" d="M413.83,324.93a4.53,4.53,0,0,0-1.52,2.32,2.52,2.52,0,0,0,.11,1.36,3.18,3.18,0,0,0,.81,1.11,5.55,5.55,0,0,0,2.41,1.32,5.81,5.81,0,0,0,2.75-.05,4.76,4.76,0,0,0,2.36-1.33,8.65,8.65,0,0,0,1.76-2.13,4,4,0,0,0,.41-2.62,7,7,0,0,0-1-2.52h0a13.79,13.79,0,0,0-2-2,11.19,11.19,0,0,0-2.44-1.46,7.28,7.28,0,0,0-2.75-.54A6.73,6.73,0,0,0,412,319h-.06a9.06,9.06,0,0,0-5.81,5.34,15,15,0,0,0-.88,8.1,7.4,7.4,0,0,0,1.85,3.61,10,10,0,0,0,3.42,2.28c1.27.56,2.6,1,3.92,1.47s2.65.91,4,1.23c-1.37-.28-2.71-.7-4-1.11s-2.67-.84-4-1.37a10.32,10.32,0,0,1-3.55-2.29,7.76,7.76,0,0,1-2-3.73,14.88,14.88,0,0,1,.84-8.37,9.46,9.46,0,0,1,6.12-5.65l-.06,0a7.26,7.26,0,0,1,2.93-.68,7.6,7.6,0,0,1,2.93.6,11,11,0,0,1,2.54,1.54,13.45,13.45,0,0,1,2.11,2.09h0a7.55,7.55,0,0,1,1.09,2.69,4.41,4.41,0,0,1-.49,2.87A8.59,8.59,0,0,1,421,329.9a5,5,0,0,1-2.52,1.37,5.85,5.85,0,0,1-2.88,0,5.61,5.61,0,0,1-2.46-1.43,3.23,3.23,0,0,1-.81-1.19,2.55,2.55,0,0,1-.08-1.42A4.52,4.52,0,0,1,413.83,324.93Z" transform="translate(-121.3 -112.73)"/></g><path class="cls-16" d="M367.52,319.36a29,29,0,0,0,15.55-9.8l-5.48-9s-2.61-5-6.65-6.11c-1.19-.34-3.83,9.19-3.83,9.19S363.83,313.1,367.52,319.36Z" transform="translate(-121.3 -112.73)"/><path class="cls-17" d="M396.14,320.76a3.5,3.5,0,0,0,2.21-2.33c.51-1.51.47-3.32.81-5.57.78-5.13,0-15.73-4.34-18.63,0,0-5.72,2-7.15,5.79,0,0-3.94-2.29-10.48,0C377.19,300,382.29,318.14,396.14,320.76Z" transform="translate(-121.3 -112.73)"/><g class="cls-18"><path class="cls-19" d="M370.73,323.08a14.69,14.69,0,0,0,5.57,1.52c1,.09,1.92.11,2.9.11s1.95,0,2.92.09a43,43,0,0,0,5.79,0,11,11,0,0,0,2.78-.6,13.32,13.32,0,0,0,2.53-1.33,15.17,15.17,0,0,0,4.39-3.63,4.48,4.48,0,0,0,.65-1.22,6.48,6.48,0,0,0,.25-1.39l.38-2.88a53.71,53.71,0,0,0,.44-5.79,23.83,23.83,0,0,0-.5-5.78,32.81,32.81,0,0,1,.44,11.61c-.1,1-.21,1.94-.33,2.9a7.34,7.34,0,0,1-.26,1.47,4.81,4.81,0,0,1-.7,1.35,15.87,15.87,0,0,1-4.5,3.79,14.81,14.81,0,0,1-2.63,1.35,11.62,11.62,0,0,1-2.9.61,36.79,36.79,0,0,1-5.85-.11c-1-.06-1.94-.12-2.91-.16a26.15,26.15,0,0,1-2.92-.18A14.79,14.79,0,0,1,370.73,323.08Z" transform="translate(-121.3 -112.73)"/></g><path class="cls-17" d="M418.1,300s-.83,7,6.81,11.61c0,0,4.67,3.77,10.3,3.58C435.21,315.16,434.79,303.9,418.1,300Z" transform="translate(-121.3 -112.73)"/><g class="cls-18"><path class="cls-19" d="M371.13,330.89a29.42,29.42,0,0,1,2.1,2.68l1,1.39c.15.24.32.46.48.69a2,2,0,0,0,.57.6,3.24,3.24,0,0,1-1.35-1.05,13.66,13.66,0,0,1-1.07-1.34A16.78,16.78,0,0,1,371.13,330.89Z" transform="translate(-121.3 -112.73)"/></g><g class="cls-18"><path class="cls-19" d="M376.84,337.38c2,.78,3.94,1.55,5.93,2.22,1,.35,2,.65,3,.94s2,.52,3.08.75a20.88,20.88,0,0,1-6.25-1.22A28.33,28.33,0,0,1,376.84,337.38Z" transform="translate(-121.3 -112.73)"/></g><g class="cls-18"><path class="cls-19" d="M389.25,333.39A5.69,5.69,0,0,0,389,336a8,8,0,0,0,.72,2.47,13.74,13.74,0,0,0,1.31,2.25c.52.71,1.08,1.38,1.65,2.08-.35-.28-.68-.58-1-.87s-.61-.65-.93-1a10.48,10.48,0,0,1-1.46-2.29,6.75,6.75,0,0,1-.64-2.65A4.53,4.53,0,0,1,389.25,333.39Z" transform="translate(-121.3 -112.73)"/></g><g class="cls-18"><path class="cls-19" d="M424.79,322a8.4,8.4,0,0,1,.41,2.69,7.15,7.15,0,0,1-.49,2.72,4.75,4.75,0,0,1-1.78,2.13,5.24,5.24,0,0,1-2.61.79,6.79,6.79,0,0,0,2.39-1.1,5,5,0,0,0,1.54-2,8.69,8.69,0,0,0,.57-2.54A14.9,14.9,0,0,0,424.79,322Z" transform="translate(-121.3 -112.73)"/></g><path class="cls-20" d="M380.6,315.16a4.27,4.27,0,0,1,2.47,0S381.93,318.16,380.6,315.16Z" transform="translate(-121.3 -112.73)"/><path class="cls-19" d="M395.25,317.39a6.81,6.81,0,0,1,2.32-1.94,8.55,8.55,0,0,1,2.92-.94,9.75,9.75,0,0,1,3.05.13c.5.08,1,.27,1.47.39s.94.39,1.39.6a21.67,21.67,0,0,0-2.92-.61,12.49,12.49,0,0,0-2.93,0A9.83,9.83,0,0,0,395.25,317.39Z" transform="translate(-121.3 -112.73)"/><path class="cls-19" d="M396.14,312.36a17.08,17.08,0,0,1,3-1.14,15.88,15.88,0,0,1,3.13-.6,9.58,9.58,0,0,1,3.2.19,5.16,5.16,0,0,1,2.75,1.55,6.26,6.26,0,0,0-2.83-1.18,11.75,11.75,0,0,0-3.08-.06A33.66,33.66,0,0,0,396.14,312.36Z" transform="translate(-121.3 -112.73)"/><path class="cls-19" d="M369.16,317.64A22.44,22.44,0,0,0,363,318a13.47,13.47,0,0,0-2.91,1,10.73,10.73,0,0,0-2.5,1.82,7.69,7.69,0,0,1,2.32-2.15,10.27,10.27,0,0,1,3-1.14,14.1,14.1,0,0,1,3.17-.27A13.2,13.2,0,0,1,369.16,317.64Z" transform="translate(-121.3 -112.73)"/><path class="cls-19" d="M369.16,313.85a13.76,13.76,0,0,0-8.73-.89,19,19,0,0,0-2.87.89,14.52,14.52,0,0,1,1.34-.73,12.34,12.34,0,0,1,1.43-.54,10.42,10.42,0,0,1,3-.46,10.06,10.06,0,0,1,3,.42A8.71,8.71,0,0,1,369.16,313.85Z" transform="translate(-121.3 -112.73)"/></g><g id="features"><path class="cls-21" d="M316.93,226.65s1.17-1.09,1.09,0c-.06.8-.29,3.72-.29,3.72a1,1,0,0,1-.8.4,8.06,8.06,0,0,0-1.25,0s-.92-.52-.46-1.26S316.93,226.65,316.93,226.65Z" transform="translate(-121.3 -112.73)"/><path class="cls-22" d="M320,233.91c-.67-.74-3-3.13-5.14-1.62a1.59,1.59,0,0,0,.51,2.18s3.4.33,4.56-.19A.24.24,0,0,0,320,233.91Z" transform="translate(-121.3 -112.73)"/><path class="cls-23" d="M342.49,213.41a13.27,13.27,0,0,0-12.76-4.78s-4.9.12-4.33,3.2c0,0,0,1.42,1.86.65s6-1.62,8.23-1C335.49,211.47,340.23,211.79,342.49,213.41Z" transform="translate(-121.3 -112.73)"/><path class="cls-23" d="M313.82,212.34s1.82-1.74-.93-3-7.17-1-8.11.25-.6,1.74,0,1.58.53-1.46,4.79-.12Z" transform="translate(-121.3 -112.73)"/></g></svg>